<svg width="39" height="38" viewBox="0 0 39 38" fill="none" xmlns="http://www.w3.org/2000/svg">
<path fill-rule="evenodd" clip-rule="evenodd" d="M38.941 19.7916C38.8052 19.5242 38.4783 19.4176 38.211 19.5534L32.7643 22.3218C32.7466 22.3263 32.7094 22.3345 32.6462 22.3436C32.559 22.3561 32.4475 22.3668 32.3149 22.3753C32.05 22.3924 31.7266 22.3992 31.3941 22.4C30.8203 22.4013 30.2436 22.3848 29.9325 22.3758C29.8833 22.3744 29.8408 22.3732 29.806 22.3722C28.1187 22.3272 23.7479 22.5298 17.8208 25.1649C14.9736 26.4308 11.7554 26.1961 9.19953 25.6138C7.92884 25.3243 6.84007 24.953 6.06956 24.6542C5.6847 24.5049 5.38026 24.3742 5.17339 24.2814C5.06999 24.235 4.99104 24.1982 4.9387 24.1733C4.91254 24.1609 4.89302 24.1514 4.88044 24.1453C4.87415 24.1422 4.86959 24.14 4.8668 24.1386L4.86394 24.1372L4.86376 24.1371C4.59555 24.0029 4.26942 24.1117 4.13531 24.38C4.00122 24.6483 4.10993 24.9745 4.37814 25.1087L4.62094 24.6229C4.37814 25.1087 4.37831 25.1087 4.37851 25.1088L4.38066 25.1099L4.38588 25.1125L4.39336 25.1162C4.39654 25.1178 4.40021 25.1195 4.40435 25.1216C4.4202 25.1293 4.44305 25.1404 4.47266 25.1544C4.53186 25.1826 4.61808 25.2228 4.72915 25.2726C4.95123 25.3722 5.27298 25.5103 5.67706 25.667C6.48448 25.9801 7.62471 26.3691 8.95839 26.6729C11.6113 27.2773 15.1033 27.5618 18.2618 26.1576C24.0219 23.5968 28.2289 23.4168 29.777 23.4581C29.81 23.459 29.851 23.4602 29.8989 23.4616C30.208 23.4705 30.804 23.4877 31.3966 23.4863C31.7385 23.4855 32.0873 23.4785 32.3846 23.4594C32.6531 23.4421 32.963 23.4115 33.1705 23.3308C33.1873 23.3243 33.2037 23.3169 33.2197 23.3088L38.7029 20.5219C38.9702 20.386 39.0768 20.0591 38.941 19.7916Z" fill="#3EE5F0"/>
<path fill-rule="evenodd" clip-rule="evenodd" d="M33.179 22.3217C32.9014 22.2083 32.5845 22.3415 32.4711 22.6192L29.3794 30.1938C29.266 30.4715 29.3992 30.7885 29.6768 30.9019C29.9544 31.0153 30.2713 30.8821 30.3847 30.6044L33.4765 23.0299C33.5898 22.7522 33.4567 22.4351 33.179 22.3217Z" fill="#3EE5F0"/>
<path fill-rule="evenodd" clip-rule="evenodd" d="M7.68481 22.5071C7.68481 22.2071 7.44172 21.9639 7.14186 21.9639H0.542946C0.243084 21.9639 0 22.2071 0 22.5071V26.4286C0 26.7286 0.243084 26.9718 0.542946 26.9718H2.00249L4.04602 30.6623C4.19132 30.9247 4.52175 31.0195 4.78405 30.8742C5.04636 30.7289 5.14122 30.3983 4.99593 30.1359L2.79737 26.1655C2.70171 25.9927 2.51984 25.8855 2.32242 25.8855H1.0859V23.0502H7.14186C7.44172 23.0502 7.68481 22.807 7.68481 22.5071Z" fill="#3EE5F0"/>
<path fill-rule="evenodd" clip-rule="evenodd" d="M21.7039 5.23231C21.6011 5.12008 21.4559 5.05618 21.3037 5.05618H15.5148C15.3043 5.05618 15.1128 5.17783 15.0233 5.36837C14.9342 5.55819 14.9623 5.78232 15.0953 5.94422C15.0957 5.94465 15.096 5.94508 15.0964 5.94551L15.0958 5.94475L15.0957 5.94468C15.0967 5.9459 15.099 5.94876 15.1024 5.95321C15.1093 5.96211 15.1209 5.97731 15.136 5.99836C15.1663 6.04058 15.2106 6.10564 15.2606 6.19007C15.3614 6.36038 15.4807 6.60111 15.5593 6.88559C15.7119 7.43794 15.7172 8.15722 15.0968 8.90555C14.9625 9.06759 14.9338 9.29269 15.0233 9.48322C15.1128 9.67376 15.3043 9.79541 15.5148 9.79541H21.3037C21.4519 9.79541 21.5937 9.73477 21.6961 9.62757C22.712 8.56442 22.7233 7.43468 22.4631 6.59449C22.337 6.18727 22.15 5.85166 21.9974 5.61988C21.9205 5.50303 21.8505 5.40996 21.7984 5.34452C21.7723 5.31173 21.7505 5.28569 21.7344 5.26687C21.7263 5.25745 21.7196 5.24983 21.7145 5.24405C21.7119 5.24117 21.7097 5.23874 21.708 5.23678L21.7056 5.23419L21.7047 5.23316L21.7043 5.23271C21.7041 5.23251 21.7039 5.23231 21.3037 5.59932L21.7039 5.23231ZM21.0395 6.14245C21.0557 6.16545 21.0728 6.19046 21.0905 6.21736C21.2049 6.39111 21.3383 6.63344 21.4258 6.91593C21.5799 7.41341 21.6014 8.04496 21.0597 8.70914H16.4824C16.812 7.93353 16.7697 7.18873 16.6059 6.59614C16.5607 6.43246 16.5064 6.28053 16.4488 6.14245H21.0395ZM20.9026 5.96539C20.9021 5.96482 20.9018 5.96453 20.9018 5.96453L20.9023 5.96512L20.9026 5.96539ZM15.0965 5.94566C15.0965 5.94561 15.0964 5.94556 15.0964 5.94551L15.0965 5.94566ZM28.9395 7.39012C28.8399 7.30092 28.711 7.25161 28.5773 7.25161H24.9473C24.7313 7.25161 24.5358 7.3797 24.4496 7.57781C24.3636 7.77518 24.4023 8.00464 24.5481 8.16284C24.5481 8.1629 24.5482 8.16298 24.5483 8.16307M28.9395 7.39012L28.5773 7.79474L28.9395 7.39012ZM28.3498 8.33787C28.3762 8.36719 28.4052 8.40058 28.4357 8.43763C28.5694 8.59983 28.7181 8.81516 28.8133 9.05176C28.9078 9.28654 28.9387 9.51314 28.8837 9.72573C28.8367 9.90781 28.712 10.1368 28.399 10.3842H25.9707C26.0377 10.2251 26.0858 10.0648 26.1169 9.90465C26.2088 9.43078 26.1454 8.99248 26.0306 8.63075C25.998 8.52771 25.9608 8.42986 25.9212 8.33787H28.3498ZM24.5494 8.16423C24.5493 8.1642 24.5493 8.16418 24.5493 8.16416L24.5494 8.16423ZM22.5281 11.0405C22.5281 10.7405 22.285 10.4974 21.9851 10.4974H14.1115C13.8955 10.4974 13.7001 10.6255 13.6138 10.8236C13.5277 11.0212 13.5666 11.251 13.7129 11.4093C13.7129 11.4093 13.7129 11.4093 13.713 11.4093C13.7131 11.4094 13.7132 11.4095 13.7133 11.4096C13.7133 11.4097 13.7133 11.4097 13.7133 11.4097C13.7134 11.4098 13.7135 11.4099 13.7136 11.41C13.7137 11.4101 13.7138 11.4102 13.7139 11.4103L13.7153 11.4118C13.7179 11.4148 13.7227 11.4202 13.7295 11.4279C13.7429 11.4434 13.764 11.4681 13.791 11.5014C13.8451 11.5683 13.9221 11.6688 14.0085 11.7976C14.1826 12.0571 14.387 12.4203 14.5216 12.8447C14.6557 13.2674 14.7168 13.7382 14.6221 14.2262C14.5284 14.7089 14.2757 15.2436 13.7276 15.7919C13.5723 15.9473 13.5259 16.1809 13.6099 16.3838C13.694 16.5868 13.8919 16.7191 14.1115 16.7191H21.3037C21.6035 16.7191 21.8466 16.4759 21.8466 16.176C21.8466 15.876 21.6035 15.6328 21.3037 15.6328H15.2255C15.4621 15.2346 15.6107 14.8317 15.6881 14.4332C15.8252 13.7263 15.7317 13.0678 15.5566 12.5161C15.4445 12.1625 15.2973 11.8476 15.1501 11.5836H21.9851C22.285 11.5836 22.5281 11.3405 22.5281 11.0405ZM30.1636 12.0679C30.0626 11.9715 29.9284 11.9177 29.7888 11.9177H23.1668C22.9508 11.9177 22.7554 12.0458 22.6691 12.2439C22.583 12.4415 22.6219 12.6712 22.768 12.8294C22.7684 12.8299 22.7688 12.8303 22.7692 12.8307L23.1668 12.4609C22.7692 12.8307 22.769 12.8305 22.7689 12.8304L22.7686 12.8301L22.7695 12.8311C22.7715 12.8333 22.7754 12.8376 22.7809 12.8439C22.7918 12.8565 22.8093 12.877 22.8318 12.9048C22.877 12.9606 22.9416 13.045 23.0142 13.1532C23.1608 13.3717 23.3322 13.6765 23.4447 14.0314C23.5569 14.3848 23.6069 14.7751 23.5287 15.178C23.4515 15.5757 23.2429 16.0206 22.7829 16.4808C22.6276 16.6361 22.5812 16.8697 22.6652 17.0727C22.7493 17.2756 22.9472 17.408 23.1668 17.408H29.7888C29.9342 17.408 30.0735 17.3496 30.1756 17.246C30.7987 16.6132 31.1358 15.962 31.2641 15.3265C31.3917 14.6939 31.3048 14.1153 31.1408 13.6358C30.9778 13.1591 30.7361 12.7717 30.5392 12.5062C30.44 12.3724 30.3499 12.2666 30.2832 12.1927C30.2497 12.1557 30.2219 12.1265 30.2014 12.1056C30.1912 12.0951 30.1828 12.0867 30.1764 12.0804C30.1732 12.0773 30.1706 12.0747 30.1684 12.0726L30.1656 12.0698L30.1645 12.0688L30.164 12.0683C30.1638 12.0681 30.1636 12.0679 29.7888 12.4609L30.1636 12.0679ZM29.5496 13.004C29.5847 13.046 29.6246 13.096 29.6671 13.1533C29.8195 13.3589 29.9969 13.6468 30.1134 13.9874C30.2288 14.3251 30.2816 14.7056 30.1997 15.1116C30.1271 15.4709 29.943 15.881 29.5533 16.3217H24.2551C24.4242 16.0109 24.5342 15.6968 24.5947 15.3851C24.7154 14.7633 24.6328 14.1852 24.4798 13.7029C24.3976 13.4439 24.294 13.2088 24.1871 13.004H29.5496ZM20.2149 18.1044C20.2149 17.8044 19.9718 17.5613 19.6719 17.5613H12.2579C12.0419 17.5613 11.8464 17.6894 11.7602 17.8875C11.674 18.0852 11.7131 18.3152 11.8595 18.4734C11.8596 18.4736 11.8598 18.4737 11.8599 18.4739L11.8597 18.4737C11.8603 18.4742 11.8615 18.4756 11.8634 18.4777C11.8673 18.482 11.8738 18.4894 11.8828 18.4997C11.9008 18.5203 11.9285 18.5527 11.9635 18.5961C12.0338 18.6829 12.1333 18.8127 12.2445 18.9786C12.4684 19.3124 12.7326 19.7813 12.907 20.3312C13.081 20.8796 13.162 21.4958 13.0374 22.1378C12.9138 22.7745 12.5815 23.4716 11.874 24.1794C11.662 24.3915 11.662 24.7354 11.874 24.9475C12.086 25.1596 12.4298 25.1596 12.6418 24.9475C13.4899 24.0992 13.9353 23.2109 14.1034 22.3448C14.2704 21.484 14.157 20.68 13.9421 20.0026C13.7736 19.4715 13.5404 19.0104 13.3209 18.6475H19.6719C19.9718 18.6475 20.2149 18.4044 20.2149 18.1044ZM21.9084 19.6934C22.1897 20.2167 22.422 21.0887 22.0458 22.4062C21.9635 22.6946 22.1304 22.9952 22.4187 23.0776C22.7071 23.16 23.0076 22.993 23.0899 22.7046C23.5418 21.1223 23.2836 19.958 22.8649 19.179C22.8432 19.1388 22.8213 19.0997 22.799 19.0617H30.1776C30.2238 19.1461 30.2782 19.2584 30.3319 19.3993C30.4817 19.7925 30.63 20.4185 30.5727 21.2987C30.5532 21.598 30.78 21.8565 31.0793 21.8759C31.3785 21.8954 31.6368 21.6686 31.6563 21.3692C31.724 20.3285 31.5501 19.5467 31.3466 19.0125C31.2452 18.7464 31.1374 18.544 31.0507 18.4034C31.0074 18.3331 30.9694 18.2782 30.9401 18.2385C30.9255 18.2186 30.913 18.2025 30.9031 18.1902C30.8982 18.184 30.894 18.1788 30.8904 18.1745C30.8886 18.1723 30.887 18.1704 30.8856 18.1687L30.8836 18.1664L30.8827 18.1653L30.8823 18.1648C30.882 18.1646 30.8818 18.1644 30.4703 18.5186L30.8818 18.1644C30.7787 18.0444 30.6284 17.9755 30.4703 17.9755H21.6081C21.6048 17.9753 21.6014 17.9751 21.598 17.975C21.5579 17.9736 21.4636 17.9742 21.3564 18.0221C21.2265 18.0801 21.1005 18.1998 21.0528 18.378C21.0091 18.5411 21.0437 18.7153 21.1465 18.8492C21.2013 18.9207 21.2722 18.9764 21.3521 19.0128C21.3788 19.0323 21.4231 19.0676 21.4784 19.1202C21.6003 19.236 21.7641 19.4249 21.9084 19.6934Z" fill="#3EE5F0"/>
<path fill-rule="evenodd" clip-rule="evenodd" d="M19.0985 0.0852922C18.9422 -0.0144726 18.7458 -0.0275817 18.5777 0.0505248L14.7239 1.84077C14.514 1.93826 14.3889 2.15808 14.4124 2.38836C14.4358 2.61864 14.6025 2.80876 14.8277 2.86197L18.2634 3.6737V5.59932C18.2634 5.89928 18.5065 6.14245 18.8064 6.14245C19.1062 6.14245 19.3493 5.89928 19.3493 5.59932V3.25495C19.3495 3.24726 19.3495 3.23958 19.3493 3.23193V0.543134C19.3493 0.357687 19.2547 0.185057 19.0985 0.0852922ZM18.2634 2.55755L16.6034 2.16534L18.2634 1.39419V2.55755Z" fill="#3EE5F0"/>
<path fill-rule="evenodd" clip-rule="evenodd" d="M27.2862 3.02604C27.1238 2.92761 26.9218 2.92121 26.7535 3.00916L23.5207 4.69846C23.3174 4.80467 23.2028 5.02716 23.2342 5.25437C23.2657 5.48159 23.4365 5.66454 23.6609 5.7115L26.4619 6.29744V7.79474C26.4619 8.0947 26.705 8.33787 27.0048 8.33787C27.3047 8.33787 27.5478 8.0947 27.5478 7.79474V5.86648C27.5479 5.8592 27.5479 5.85194 27.5478 5.84471V3.49057C27.5478 3.30061 27.4486 3.12446 27.2862 3.02604ZM26.4619 5.18768L25.3678 4.9588L26.4619 4.38706V5.18768Z" fill="#3EE5F0"/>
<path fill-rule="evenodd" clip-rule="evenodd" d="M27.0048 10.3842C26.705 10.3842 26.4619 10.6274 26.4619 10.9274V12.4609C26.4619 12.7608 26.705 13.004 27.0048 13.004C27.3047 13.004 27.5478 12.7608 27.5478 12.4609V10.9274C27.5478 10.6274 27.3047 10.3842 27.0048 10.3842Z" fill="#3EE5F0"/>
<path fill-rule="evenodd" clip-rule="evenodd" d="M18.8064 8.70914C18.5065 8.70914 18.2634 8.95231 18.2634 9.25227V10.7858C18.2634 11.0857 18.5065 11.3289 18.8064 11.3289C19.1062 11.3289 19.3493 11.0857 19.3493 10.7858V9.25227C19.3493 8.95231 19.1062 8.70914 18.8064 8.70914Z" fill="#3EE5F0"/>
<path fill-rule="evenodd" clip-rule="evenodd" d="M18.8064 15.8303C18.5065 15.8303 18.2634 16.0735 18.2634 16.3734V17.9069C18.2634 18.2069 18.5065 18.4501 18.8064 18.4501C19.1062 18.4501 19.3493 18.2069 19.3493 17.9069V16.3734C19.3493 16.0735 19.1062 15.8303 18.8064 15.8303Z" fill="#3EE5F0"/>
<path fill-rule="evenodd" clip-rule="evenodd" d="M27.0048 16.3217C26.705 16.3217 26.4619 16.5649 26.4619 16.8648V18.3983C26.4619 18.6983 26.705 18.9415 27.0048 18.9415C27.3047 18.9415 27.5478 18.6983 27.5478 18.3983V16.8648C27.5478 16.5649 27.3047 16.3217 27.0048 16.3217Z" fill="#3EE5F0"/>
<path fill-rule="evenodd" clip-rule="evenodd" d="M11.2046 6.63267C11.1051 6.54348 10.9761 6.49416 10.8424 6.49416H7.21244C6.99643 6.49416 6.80096 6.62226 6.71468 6.82036C6.62873 7.01773 6.66744 7.24718 6.81319 7.40537C6.81325 7.40544 6.81333 7.40553 6.81342 7.40563M11.2046 6.63267L10.8424 7.0373L11.2046 6.63267ZM10.6149 7.58043C10.6413 7.60975 10.6703 7.64315 10.7009 7.6802C10.8346 7.8424 10.9832 8.05773 11.0785 8.29433C11.173 8.5291 11.2039 8.7557 11.1489 8.96829C11.1018 9.15036 10.9772 9.37939 10.6641 9.6268H8.23583C8.30281 9.46766 8.3509 9.30738 8.38199 9.14721C8.47395 8.67334 8.41054 8.23504 8.29577 7.87331C8.26308 7.77027 8.22592 7.67242 8.18631 7.58043H10.6149ZM6.8145 7.40679C6.8145 7.4068 6.81448 7.40678 6.8145 7.40679V7.40679ZM12.4288 11.3105C12.3278 11.2141 12.1936 11.1603 12.054 11.1603H5.43204C5.21603 11.1603 5.02056 11.2884 4.93428 11.4865C4.84825 11.684 4.8871 11.9137 5.03317 12.0719C5.03331 12.0721 5.03345 12.0722 5.03358 12.0724C5.03374 12.0725 5.03389 12.0727 5.03405 12.0729L5.03381 12.0726L5.03474 12.0737C5.03675 12.0759 5.0406 12.0802 5.04608 12.0865C5.05706 12.0991 5.07454 12.1196 5.09705 12.1474C5.14218 12.2032 5.20685 12.2875 5.27944 12.3957C5.42599 12.6143 5.59736 12.9191 5.70995 13.274C5.82207 13.6274 5.87209 14.0177 5.7939 14.4206C5.71672 14.8183 5.50813 15.2632 5.04811 15.7233C4.89283 15.8787 4.84638 16.1123 4.93042 16.3152C5.01446 16.5182 5.21244 16.6505 5.43204 16.6505H12.054C12.1994 16.6505 12.3387 16.5922 12.4408 16.4885C13.0639 15.8558 13.401 15.2046 13.5293 14.5691C13.6569 13.9364 13.5699 13.3579 13.406 12.8784C13.243 12.4016 13.0013 12.0143 12.8044 11.7487C12.7052 11.6149 12.6152 11.5091 12.5484 11.4353C12.5149 11.3982 12.4871 11.369 12.4667 11.3481C12.4564 11.3377 12.448 11.3293 12.4417 11.323C12.4385 11.3198 12.4358 11.3172 12.4336 11.3151L12.4308 11.3124L12.4297 11.3114L12.4292 11.3109C12.429 11.3107 12.4288 11.3105 12.054 11.7034L12.4288 11.3105ZM11.8148 12.2466C11.8499 12.2885 11.8897 12.3386 11.9323 12.3959C12.0847 12.6014 12.2621 12.8894 12.3785 13.2299C12.494 13.5676 12.5467 13.9482 12.4648 14.3541C12.3923 14.7135 12.2082 15.1236 11.8185 15.5643H6.52029C6.68941 15.2534 6.79938 14.9394 6.85989 14.6276C6.98056 14.0059 6.89801 13.4278 6.74498 12.9454C6.66282 12.6864 6.55925 12.4514 6.45228 12.2466H11.8148ZM4.14418 18.8002C4.38792 19.1826 4.57567 19.7706 4.24313 20.6067C4.13227 20.8854 4.26828 21.2013 4.54691 21.3122C4.82553 21.423 5.14125 21.287 5.2521 21.0083C5.70718 19.864 5.49032 18.9433 5.1138 18.3043H10.8472C11.1471 18.3043 11.3902 18.0611 11.3902 17.7611C11.3902 17.4612 11.1471 17.218 10.8472 17.218H3.87476C3.86015 17.2172 3.84464 17.2169 3.82841 17.2174C3.77713 17.2189 3.4183 17.2461 3.318 17.6206C3.2743 17.7837 3.30893 17.9578 3.41169 18.0918C3.47096 18.1691 3.54901 18.2279 3.63685 18.2638C3.66217 18.2807 3.70238 18.3098 3.75208 18.3516C3.86728 18.4486 4.01628 18.5995 4.14418 18.8002Z" fill="#3EE5F0"/>
<path fill-rule="evenodd" clip-rule="evenodd" d="M9.55133 2.26859C9.38892 2.17016 9.18691 2.16376 9.0186 2.25172L5.78588 3.94101C5.58264 4.04722 5.468 4.26971 5.49946 4.49693C5.53092 4.72415 5.70168 4.9071 5.92614 4.95405L8.72704 5.54V7.0373C8.72704 7.33726 8.97013 7.58043 9.26999 7.58043C9.56985 7.58043 9.81294 7.33726 9.81294 7.0373V5.10903C9.81309 5.10176 9.81309 5.0945 9.81294 5.08726V2.73312C9.81294 2.54317 9.71374 2.36702 9.55133 2.26859ZM8.72704 4.43023L7.63296 4.20135L8.72704 3.62962V4.43023Z" fill="#3EE5F0"/>
<path fill-rule="evenodd" clip-rule="evenodd" d="M9.26999 9.6268C8.97013 9.6268 8.72704 9.86997 8.72704 10.1699V11.7034C8.72704 12.0034 8.97013 12.2466 9.26999 12.2466C9.56985 12.2466 9.81293 12.0034 9.81293 11.7034V10.1699C9.81293 9.86997 9.56985 9.6268 9.26999 9.6268Z" fill="#3EE5F0"/>
<path fill-rule="evenodd" clip-rule="evenodd" d="M9.26999 15.5643C8.97013 15.5643 8.72704 15.8074 8.72704 16.1074V17.6409C8.72704 17.9409 8.97013 18.184 9.26999 18.184C9.56985 18.184 9.81293 17.9409 9.81293 17.6409V16.1074C9.81293 15.8074 9.56985 15.5643 9.26999 15.5643Z" fill="#3EE5F0"/>
<path fill-rule="evenodd" clip-rule="evenodd" d="M31.4606 26.405C31.4606 26.1051 31.2175 25.8619 30.9176 25.8619H26.7116C26.4117 25.8619 26.1686 26.1051 26.1686 26.405C26.1686 26.705 26.4117 26.9482 26.7116 26.9482H30.9176C31.2175 26.9482 31.4606 26.705 31.4606 26.405Z" fill="#3EE5F0"/>
<path fill-rule="evenodd" clip-rule="evenodd" d="M25.3823 26.405C25.3823 26.1051 25.1392 25.8619 24.8393 25.8619H24.4218C24.1219 25.8619 23.8789 26.1051 23.8789 26.405C23.8789 26.705 24.1219 26.9482 24.4218 26.9482H24.8393C25.1392 26.9482 25.3823 26.705 25.3823 26.405Z" fill="#3EE5F0"/>
<path fill-rule="evenodd" clip-rule="evenodd" d="M25.3813 28.3602C25.3813 28.0603 25.1383 27.8171 24.8384 27.8171H20.5074C20.2075 27.8171 19.9644 28.0603 19.9644 28.3602C19.9644 28.6602 20.2075 28.9034 20.5074 28.9034H24.8384C25.1383 28.9034 25.3813 28.6602 25.3813 28.3602Z" fill="#3EE5F0"/>
<path fill-rule="evenodd" clip-rule="evenodd" d="M19.1781 28.3602C19.1781 28.0603 18.935 27.8171 18.6351 27.8171H18.2176C17.9177 27.8171 17.6746 28.0603 17.6746 28.3602C17.6746 28.6602 17.9177 28.9034 18.2176 28.9034H18.6351C18.935 28.9034 19.1781 28.6602 19.1781 28.3602Z" fill="#3EE5F0"/>
<path fill-rule="evenodd" clip-rule="evenodd" d="M9.76135 28.3602C9.76135 28.0603 9.51827 27.8171 9.2184 27.8171H8.80088C8.50101 27.8171 8.25793 28.0603 8.25793 28.3602C8.25793 28.6602 8.50101 28.9034 8.80088 28.9034H9.2184C9.51827 28.9034 9.76135 28.6602 9.76135 28.3602Z" fill="#3EE5F0"/>
<path fill-rule="evenodd" clip-rule="evenodd" d="M7.48662 28.3602C7.48662 28.0603 7.24353 27.8171 6.94367 27.8171H3.80287C3.50301 27.8171 3.25992 28.0603 3.25992 28.3602C3.25992 28.6602 3.50301 28.9034 3.80287 28.9034H6.94367C7.24353 28.9034 7.48662 28.6602 7.48662 28.3602Z" fill="#3EE5F0"/>
<path fill-rule="evenodd" clip-rule="evenodd" d="M27.4179 28.3602C27.4179 28.0603 27.1748 27.8171 26.8749 27.8171H26.4574C26.1575 27.8171 25.9145 28.0603 25.9145 28.3602C25.9145 28.6602 26.1575 28.9034 26.4574 28.9034H26.8749C27.1748 28.9034 27.4179 28.6602 27.4179 28.3602Z" fill="#3EE5F0"/>
<path fill-rule="evenodd" clip-rule="evenodd" d="M32.7317 35.0564C32.7317 34.7564 32.4886 34.5132 32.1888 34.5132H23.7976C23.4977 34.5132 23.2546 34.7564 23.2546 35.0564C23.2546 35.3563 23.4977 35.5995 23.7976 35.5995H32.1888C32.4886 35.5995 32.7317 35.3563 32.7317 35.0564Z" fill="#3EE5F0"/>
<path fill-rule="evenodd" clip-rule="evenodd" d="M21.9519 35.0564C21.9519 34.7564 21.7088 34.5132 21.409 34.5132H18.5103C18.2104 34.5132 17.9673 34.7564 17.9673 35.0564C17.9673 35.3563 18.2104 35.5995 18.5103 35.5995H21.409C21.7088 35.5995 21.9519 35.3563 21.9519 35.0564Z" fill="#3EE5F0"/>
<path fill-rule="evenodd" clip-rule="evenodd" d="M13.9736 35.0564C13.9736 34.7564 13.7305 34.5132 13.4307 34.5132H6.73497C6.43511 34.5132 6.19202 34.7564 6.19202 35.0564C6.19202 35.3563 6.43511 35.5995 6.73497 35.5995H13.4307C13.7305 35.5995 13.9736 35.3563 13.9736 35.0564Z" fill="#3EE5F0"/>
<path fill-rule="evenodd" clip-rule="evenodd" d="M17.2226 35.0564C17.2226 34.7564 16.9795 34.5132 16.6797 34.5132H16.0853C15.7854 34.5132 15.5423 34.7564 15.5423 35.0564C15.5423 35.3563 15.7854 35.5995 16.0853 35.5995H16.6797C16.9795 35.5995 17.2226 35.3563 17.2226 35.0564Z" fill="#3EE5F0"/>
<path fill-rule="evenodd" clip-rule="evenodd" d="M19.1781 37.4569C19.1781 37.1569 18.935 36.9137 18.6351 36.9137H16.9929C16.693 36.9137 16.4499 37.1569 16.4499 37.4569C16.4499 37.7568 16.693 38 16.9929 38H18.6351C18.935 38 19.1781 37.7568 19.1781 37.4569Z" fill="#3EE5F0"/>
<path fill-rule="evenodd" clip-rule="evenodd" d="M15.1473 37.4569C15.1473 37.1569 14.9042 36.9137 14.6044 36.9137H11.7056C11.4058 36.9137 11.1627 37.1569 11.1627 37.4569C11.1627 37.7568 11.4058 38 11.7056 38H14.6044C14.9042 38 15.1473 37.7568 15.1473 37.4569Z" fill="#3EE5F0"/>
<path fill-rule="evenodd" clip-rule="evenodd" d="M10.418 37.4569C10.418 37.1569 10.1749 36.9137 9.87505 36.9137H9.2806C8.98073 36.9137 8.73765 37.1569 8.73765 37.4569C8.73765 37.7568 8.98073 38 9.2806 38H9.87505C10.1749 38 10.418 37.7568 10.418 37.4569Z" fill="#3EE5F0"/>
<path fill-rule="evenodd" clip-rule="evenodd" d="M38.0682 32.3834C38.0682 32.0834 37.8252 31.8402 37.5253 31.8402H1.20555C0.905689 31.8402 0.662605 32.0834 0.662605 32.3834C0.662605 32.6833 0.905689 32.9265 1.20555 32.9265H37.5253C37.8252 32.9265 38.0682 32.6833 38.0682 32.3834Z" fill="#3EE5F0"/>
<path fill-rule="evenodd" clip-rule="evenodd" d="M27.5478 37.4569C27.5478 37.1569 27.3047 36.9137 27.0048 36.9137H21.478C21.1782 36.9137 20.9351 37.1569 20.9351 37.4569C20.9351 37.7568 21.1782 38 21.478 38H27.0048C27.3047 38 27.5478 37.7568 27.5478 37.4569Z" fill="#3EE5F0"/>
</svg>
