<svg width="248" height="248" viewBox="0 0 248 248" fill="none" xmlns="http://www.w3.org/2000/svg">
<mask id="path-1-outside-1_259_29105" maskUnits="userSpaceOnUse" x="0" y="0" width="248" height="248" fill="black">
<rect fill="white" width="248" height="248"/>
<path fill-rule="evenodd" clip-rule="evenodd" d="M28 4H220V16H232V28H244V220H232V232H220V244H28V232H16V220H4V28H16V16H28V4Z"/>
</mask>
<path fill-rule="evenodd" clip-rule="evenodd" d="M28 4H220V16H232V28H244V220H232V232H220V244H28V232H16V220H4V28H16V16H28V4Z" fill="#1B1B1B"/>
<path d="M220 4H224V0H220V4ZM28 4V0H24V4H28ZM220 16H216V20H220V16ZM232 16H236V12H232V16ZM232 28H228V32H232V28ZM244 28H248V24H244V28ZM244 220V224H248V220H244ZM232 220V216H228V220H232ZM232 232V236H236V232H232ZM220 232V228H216V232H220ZM220 244V248H224V244H220ZM28 244H24V248H28V244ZM28 232H32V228H28V232ZM16 232H12V236H16V232ZM16 220H20V216H16V220ZM4 220H0V224H4V220ZM4 28V24H0V28H4ZM16 28V32H20V28H16ZM16 16V12H12V16H16ZM28 16V20H32V16H28ZM220 0H28V8H220V0ZM216 4V16H224V4H216ZM220 20H232V12H220V20ZM228 16V28H236V16H228ZM232 32H244V24H232V32ZM248 220V28H240V220H248ZM232 224H244V216H232V224ZM236 232V220H228V232H236ZM220 236H232V228H220V236ZM224 244V232H216V244H224ZM28 248H220V240H28V248ZM24 232V244H32V232H24ZM16 236H28V228H16V236ZM12 220V232H20V220H12ZM4 224H16V216H4V224ZM0 28V220H8V28H0ZM16 24H4V32H16V24ZM12 16V28H20V16H12ZM28 12H16V20H28V12ZM24 4V16H32V4H24Z" fill="#333333" mask="url(#path-1-outside-1_259_29105)"/>
</svg>
