<svg xmlns="http://www.w3.org/2000/svg" version="1.1" xmlns:xlink="http://www.w3.org/1999/xlink" xmlns:svgjs="http://svgjs.com/svgjs" width="512" height="512" x="0" y="0" viewBox="0 0 512 512" style="enable-background:new 0 0 512 512" xml:space="preserve" class=""><g><path d="M288.796 256c0 80.296-64.649 145.389-144.398 145.389S0 336.296 0 256s64.649-145.389 144.398-145.389c79.748 0 144.398 65.093 144.398 145.389M447.204 256c0 75.585-32.325 136.858-72.199 136.858S302.806 331.585 302.806 256s32.325-136.858 72.199-136.858c39.875 0 72.199 61.273 72.199 136.858M512 256c0 67.721-11.369 122.619-25.393 122.619-14.025 0-25.392-54.898-25.392-122.619s11.367-122.619 25.392-122.619C500.631 133.381 512 188.279 512 256" fill="#ffffff" data-original="#000000"></path></g></svg>