<svg width="28" height="26" viewBox="0 0 28 26" fill="none" xmlns="http://www.w3.org/2000/svg">
<path d="M27.7833 3.08005C26.7678 3.61346 25.6902 3.96402 24.5867 4.12005C25.7456 3.29907 26.6122 2.00814 27.0248 0.488048C25.932 1.25501 24.7364 1.79611 23.4895 2.08805C22.7257 1.13313 21.7366 0.47116 20.6506 0.187878C19.5645 -0.0954039 18.4315 0.0130562 17.3982 0.499209C16.3649 0.985362 15.479 1.82681 14.8553 2.91456C14.2315 4.00231 13.8986 5.28624 13.8997 6.60005C13.9016 7.10111 13.9516 7.6003 14.0487 8.08805C11.8369 7.95534 9.67351 7.27416 7.69924 6.08881C5.72497 4.90346 3.98403 3.24049 2.58966 1.20805C2.09366 2.20772 1.83186 3.34533 1.83114 4.50405C1.80654 5.57371 2.00938 6.63359 2.42111 7.58673C2.83284 8.53987 3.44031 9.35586 4.18796 9.96005C3.2669 9.92805 1.54669 9.64005 1.54669 9.14405V9.22405C1.58093 10.7465 2.05296 12.2097 2.88509 13.373C3.71722 14.5363 4.85985 15.3302 6.12489 15.624C5.68394 15.7701 5.22836 15.8455 4.7704 15.848C4.42951 15.8495 4.0893 15.812 3.75452 15.736C4.1122 17.0408 4.80547 18.1813 5.73777 18.9987C6.67008 19.816 7.79499 20.2695 8.95579 20.296C6.9905 22.1375 4.55636 23.1411 2.04786 23.144C1.59516 23.1433 1.14289 23.1112 0.693359 23.048C3.23534 24.9747 6.19292 25.9966 9.21315 25.992C11.2975 26.0176 13.3653 25.5526 15.2959 24.6241C17.2265 23.6955 18.9812 22.3222 20.4577 20.584C21.9341 18.8459 23.1028 16.7779 23.8954 14.5006C24.6881 12.2233 25.0888 9.78227 25.0743 7.32005V6.47205C26.1389 5.53797 27.0559 4.38977 27.7833 3.08005Z" fill="white"/>
</svg>
