<svg width="19" height="19" viewBox="0 0 19 19" fill="none" xmlns="http://www.w3.org/2000/svg">
<path d="M0 0H3.8V3.8H0V0Z" fill="white"/>
<path d="M3.8 3.8H7.6V7.6H3.8V3.8Z" fill="white"/>
<path d="M7.6 7.6H11.4V11.4H7.6V7.6Z" fill="white"/>
<path d="M11.4 11.4H15.2V15.2H11.4V11.4Z" fill="white"/>
<path d="M15.2 15.2H19V19H15.2V15.2Z" fill="white"/>
<path d="M19 0H15.2V3.8H19V0Z" fill="white"/>
<path d="M15.2 3.8H11.4V7.6H15.2V3.8Z" fill="white"/>
<path d="M11.4 7.6H7.6V11.4H11.4V7.6Z" fill="white"/>
<path d="M7.6 11.4H3.8V15.2H7.6V11.4Z" fill="white"/>
<path d="M3.8 15.2H0V19H3.8V15.2Z" fill="white"/>
</svg>
